# xmcd CD database file
#
# Track frame offsets:
#	150
#	13032
#	24849
#	38301
#	51982
#	62033
#	74099
#	87498
#	100205
#	111815
#	125636
#	140254
#	152800
#	167053
#	180838
#	196942
#
# Disc length: 2799 seconds
#
# Revision: 1
# Processed by: cddbd v1.5.2PL0 Copyright (c) Steve Scherf et al.
# Submitted via: CDex 1.51
#
DISCID=d10aed10
DTITLE=John Lee Hooker - Blues Legend CD 2
DYEAR=2005
DGENRE=Blues
TTITLE0=Down Child
TTITLE1=Little Wheel
TTITLE2=Every Night
TTITLE3=Tease Me Baby
TTITLE4=I Wanna Walk
TTITLE5=Mad Man Blues
TTITLE6=It's My Own Fault Darling
TTITLE7=Weeping Willow Boogie
TTITLE8=Queen Bee
TTITLE9=Louise
TTITLE10=Sugar Mama
TTITLE11=Leave My Wife Alone
TTITLE12=Stomp Boogie
TTITLE13=Morning Blues
TTITLE14=Low Down Midnite Boogie
TTITLE15=No Friend Around
EXTD=YEAR: 2005
EXTT0=
EXTT1=
EXTT2=
EXTT3=
EXTT4=
EXTT5=
EXTT6=
EXTT7=
EXTT8=
EXTT9=
EXTT10=
EXTT11=
EXTT12=
EXTT13=
EXTT14=
EXTT15=
PLAYORDER=
